<?xml version="1.0" encoding="UTF-8" standalone="no"?>
<svg width="200px" height="200px" viewBox="0 0 200 200" version="1.1" xmlns="http://www.w3.org/2000/svg" xmlns:xlink="http://www.w3.org/1999/xlink" xmlns:sketch="http://www.bohemiancoding.com/sketch/ns">
    <title>Untitled 3</title>
    <description>Created with Sketch (http://www.bohemiancoding.com/sketch)</description>
    <defs></defs>
    <g id="Page-1" stroke="none" stroke-width="1" fill="none" fill-rule="evenodd" sketch:type="MSPage">
        <path d="M0,100 C0,155.228478 44.7715223,200 100,200 C155.228478,200 200,155.228478 200,100 C200,44.7715223 155.228478,0 100,0 C44.7715223,0 0,44.7715223 0,100 Z M20,100 C20,144.182782 55.8172178,180 100,180 C144.182782,180 180,144.182782 180,100 C180,55.8172178 144.182782,20 100,20 C55.8172178,20 20,55.8172178 20,100 Z M117,55 C117,63.2842717 123.715728,70 132,70 C140.284272,70 147,63.2842717 147,55 C147,46.7157283 140.284272,40 132,40 C123.715728,40 117,46.7157283 117,55 Z M57,58 L39,58 L39,135 L57,135 L57,58 Z M83,76 L65,76 L65,153 L83,153 L83,76 Z M109,92 L91,92 L91,169 L109,169 L109,92 Z M109,92" id="Oval-3" fill="#000000" sketch:type="MSShapeGroup"></path>
    </g>
</svg>