<?xml version="1.0" encoding="UTF-8" standalone="no"?>
<svg width="220px" height="220px" viewBox="0 0 220 220" version="1.1" xmlns="http://www.w3.org/2000/svg" xmlns:xlink="http://www.w3.org/1999/xlink" xmlns:sketch="http://www.bohemiancoding.com/sketch/ns">
    <title>Untitled 3</title>
    <description>Created with Sketch (http://www.bohemiancoding.com/sketch)</description>
    <defs></defs>
    <g id="Page-1" stroke="none" stroke-width="1" fill="none" fill-rule="evenodd" sketch:type="MSPage">
        <g id="Group" sketch:type="MSLayerGroup" transform="translate(10.000000, 10.000000)" fill="#000000">
            <path d="M100,200 C155.228478,200 200,155.228478 200,100 C200,44.7715223 155.228478,0 100,0 C44.7715223,0 0,44.7715223 0,100 C0,155.228478 44.7715223,200 100,200 Z M100,185 C146.944206,185 185,146.944206 185,100 C185,53.0557939 146.944206,15 100,15 C53.0557939,15 15,53.0557939 15,100 C15,146.944206 53.0557939,185 100,185 Z M100,185" id="Oval-3" sketch:type="MSShapeGroup"></path>
            <circle d="M132,70 C140.284272,70 147,63.2842717 147,55 C147,46.7157283 140.284272,40 132,40 C123.715728,40 117,46.7157283 117,55 C117,63.2842717 123.715728,70 132,70 Z M132,70" id="Oval-1" sketch:type="MSShapeGroup" cx="132" cy="55" r="15"></circle>
            <rect d="M33,59 L33,136 L51,136 L51,59 L33,59 Z M33,59" id="Rectangle-1" sketch:type="MSShapeGroup" x="33" y="59" width="18" height="77"></rect>
            <rect d="M62,81 L62,158 L80,158 L80,81 L62,81 Z M62,81" id="Rectangle-1-copy" sketch:type="MSShapeGroup" x="62" y="81" width="18" height="77"></rect>
            <rect d="M91,97 L91,174 L109,174 L109,97 L91,97 Z M91,97" id="Rectangle-1-copy-2" sketch:type="MSShapeGroup" x="91" y="97" width="18" height="77"></rect>
        </g>
    </g>
</svg>